<svg xmlns="http://www.w3.org/2000/svg" fill="none" viewBox="1.41 27.35 18.85 43.89">
<path d="M9.96875 70.9H7.09375V69.775C6.21875 71.15 5.0625 71.5563 3.625 70.9938C2.14583 70.3896 1.40625 69.0458 1.40625 66.9625V44.9625C1.40625 42.8583 2.14583 41.525 3.625 40.9625C5.0625 40.4 6.21875 40.8167 7.09375 42.2125V27.65H9.96875V70.9ZM7.09375 44.9625C7.09375 44.0458 6.625 43.5875 5.6875 43.5875C4.75 43.5875 4.28125 44.0458 4.28125 44.9625V66.9625C4.28125 67.8792 4.75 68.3375 5.6875 68.3375C6.625 68.3583 7.09375 67.9 7.09375 66.9625V44.9625Z" fill="white"/>
<path d="M14.567 70.895H11.692V27.6763H14.567V28.8325C15.4628 27.4575 16.619 27.0408 18.0357 27.5825C19.5149 28.1242 20.2545 29.4575 20.2545 31.5825V53.2075C20.2545 55.3742 19.5149 56.7283 18.0357 57.27C16.619 57.7908 15.4628 57.3533 14.567 55.9575V70.895ZM14.567 53.2388C14.567 54.1554 15.0357 54.6138 15.9732 54.6138C16.9107 54.6138 17.3795 54.145 17.3795 53.2075V31.5825C17.3795 30.6658 16.9107 30.2075 15.9732 30.2075C15.0357 30.2075 14.567 30.6658 14.567 31.5825V53.2388Z" fill="white"/>
</svg>